<?xml version="1.0" encoding="utf-8"?>
<!-- Generator: Adobe Illustrator 23.0.3, SVG Export Plug-In . SVG Version: 6.00 Build 0)  -->
<svg version="1.1" id="Calque_1" xmlns="http://www.w3.org/2000/svg" xmlns:xlink="http://www.w3.org/1999/xlink" x="0px" y="0px"
	 viewBox="0 0 249 87" style="enable-background:new 0 0 249 87;" xml:space="preserve">
<style type="text/css">
	.st0{fill-rule:evenodd;clip-rule:evenodd;fill:#FFFFFF;}
	.st1{fill-rule:evenodd;clip-rule:evenodd;fill:#F40C23;}
</style>
<path class="st0" d="M135.4,3.6l1,2c3.1,0.3,6,0.9,8.5,2.4c1.9,1,3.6,2.4,5.6,3.1c0,0.2,0,0.5,0,0.7l0.5,0.1l8.9,7
	c1.7,1.6,3.4,3.1,5.3,4.2v0.8l0.6,0c4,2.8,8.4,5,13.6,4c2.9-0.6,5.7-3,7-5.8l4.5-10c1.5-3.1,4.7-6.1,7.7-8c1.1-0.5,2.5-1.1,3.7-0.4
	c1,0.6,1.4,1.7,1.4,2.8c-0.1,1.8-1.5,3.5-3.2,4.2c-2.2,1.3-4.6,1.9-6.6,3.8c-0.9,1.5-2.4,2.7-3.1,4.2c-1.1,2.1-1.8,4.4-2.7,6.5h-0.3
	l-0.9,1.8c-1.2,1.6-2.8,3.1-4.4,4l-0.2,0.5c2.2,3.4,2.9,7.3,3.6,11.4c0.1,2-0.4,4.3,0.4,6.1c0.2,0.4,0.4,0.8,0.7,1.2v0.7l2.8,2.2
	c0.7,2.8,2.4,5.2,2,8.3c-0.4,1.4-0.4,3-0.2,4.4c-0.3,0.4-1,0.2-1.5,0.2c-1.5-0.2-3.3-1.1-3.7-2.7c-0.3-2.3-0.2-4.7-0.4-7l-5.5-4.8
	c-1.4-1.6-2.1-3.4-3.6-4.9l-0.9-1.5l-3.5-8.1c-1.3-2-3.4-3.2-5.6-3.5l-7.8-0.7c-3.1-0.7-5.9-2.1-8.6-3.8c-2.1-1.5-4-3.9-6.1-5.5
	h-0.9c-1.6,1.7-3.7,2.3-6,2c-3.4-0.2-6-2.3-9.2-2.9c-0.3,0.6-0.4,1.3-0.6,2c-1.2,0.1-2.8,0.5-3.7-0.6c-0.7-0.8-0.9-2-0.6-3
	c0.9-2.1,3.2-3,5.4-3.1c1.7-0.1,3.3,0.3,5,0.3l0.3-0.2l-0.3-1.7l-1.3-1.2l-3.6,0.3l-3.5-2.6l-0.6-0.8v-1.3l1.5-1.7l0.7-1.7l2.4-2.1
	l1.1-2c0.8-0.3,1.4,0.4,2,0.7l0.9-0.2l0.9-1h0.8L135.4,3.6z"/>
<path class="st0" d="M85.4,66.6l-0.2,1.7v6.9c0,0.7,0.3,1.4,0.9,1.7c0.6,0.2,1.2,0.1,1.7-0.2c0.6-0.5,0.8-1.2,0.8-2V43.8h10.6v13.6
	l-0.3,1.9l0,18.4c-0.1,1.4-0.3,3-1.8,3.7C96,81.9,94.7,82,93.4,82l-14.6,0c-1.4-0.2-2.9-0.3-3.7-1.5c-0.6-1.1-0.7-2.4-0.8-3.8V43.8
	h11L85.4,66.6L85.4,66.6z"/>
<path class="st0" d="M136.7,43.8c1.6,0.1,3.3,1.1,3.7,2.7c0.4,1.2,0.4,2.9,0,4.1l0,7.8l0.2,1.5v22H130V62.2l0.3-1l0-9.2
	c-0.1-0.7-0.3-1.5-0.3-2.3c-0.1-0.4-0.5-0.8-0.9-1c-0.6-0.3-1.3-0.1-1.7,0.2c-0.8,0.6-0.4,1.8-0.5,2.8l-0.3,0.5l0,10.7l0.3,1V82
	h-10.6l0-13.9l0.3-1.3v-13l-0.3-0.8l0-3.3c-0.1-0.5-0.6-1-1.1-1.1c-0.6,0-1.3,0-1.8,0.5c-0.4,0.4-0.3,1-0.3,1.5
	c0,1.3,0.1,2.6-0.3,3.8l0,15.1l0.3,1.3V82h-10.4l0-25l-0.3-1.3l0-9c0.1-1.2,1.2-2.2,2.3-2.4c0.7-0.2,1.3-0.3,2-0.4L136.7,43.8
	L136.7,43.8z"/>
<path class="st0" d="M71.2,46.1c-0.6-1.8-2.5-2.1-4.2-2.3H45.5V82h11.1v-9.2h9.6c1,0,1.9-0.2,2.8-0.5c1.8-0.7,2.3-2.6,2.4-4.3V47
	L71.2,46.1z M60.2,65.9c-0.1,0.7-0.4,1.4-1.1,1.8c-0.7,0.4-1.7,0.4-2.6,0.4V48c1.2-0.1,2.6-0.2,3.3,0.9c0.3,0.5,0.4,1.1,0.4,1.7
	L60.2,65.9z"/>
<path class="st0" d="M168,46.5l-0.2-0.8c-0.7-1.4-2.2-1.7-3.6-1.8h-16.4h-0.5c-1.5,0-3,1.3-3.5,2.7c0,1.3-0.2,2.7,0.2,3.8v7.8
	l-0.2,1V82h11v-9.2h2.8V82h10.6V53.2C167.9,51.4,168,48.7,168,46.5z M157.7,56v12h-2.8V56.7l-0.5-1.5v-5.1c0-0.7,0.7-1.2,1.3-1.5
	c0.8-0.3,1.6,0,2.1,0.7l0.2,0.4C158,51.9,158.1,54.5,157.7,56z"/>
<path class="st1" d="M80,81c0.3,0,0.5-0.2,0.5-0.5v-6c0-0.3-0.2-0.5-0.5-0.5c-0.3,0-0.5,0.2-0.5,0.5v6C79.6,80.8,79.8,81,80,81z"/>
<path class="st1" d="M78.1,81c0.3,0,0.5-0.2,0.5-0.5v-2.3c0-0.3-0.2-0.5-0.5-0.5c-0.3,0-0.5,0.2-0.5,0.5v2.3
	C77.6,80.8,77.8,81,78.1,81z"/>
<path class="st1" d="M85.8,81c0.3,0,0.5-0.2,0.5-0.5v-2.3c0-0.3-0.2-0.5-0.5-0.5c-0.3,0-0.5,0.2-0.5,0.5v2.3
	C85.3,80.8,85.5,81,85.8,81z"/>
<path class="st1" d="M88,81c0.3,0,0.5-0.2,0.5-0.5v-2.3c0-0.3-0.2-0.5-0.5-0.5c-0.3,0-0.5,0.2-0.5,0.5v2.3C87.5,80.8,87.7,81,88,81z
	"/>
<path class="st1" d="M81.9,81c0.3,0,0.5-0.2,0.5-0.5v-8.7c0-0.3-0.2-0.5-0.5-0.5c-0.3,0-0.5,0.2-0.5,0.5v8.7
	C81.4,80.8,81.6,81,81.9,81z"/>
<path class="st1" d="M83.7,81c0.3,0,0.5-0.2,0.5-0.5V68.9c0-0.3-0.2-0.5-0.5-0.5c-0.3,0-0.5,0.2-0.5,0.5v11.6
	C83.2,80.8,83.4,81,83.7,81z"/>
<path class="st1" d="M90.2,81c0.3,0,0.5-0.2,0.5-0.5V68.9c0-0.3-0.2-0.5-0.5-0.5s-0.5,0.2-0.5,0.5v11.6C89.7,80.8,89.9,81,90.2,81z"
	/>
<path class="st1" d="M92,81c0.3,0,0.5-0.2,0.5-0.5V63.2c0-0.3-0.2-0.5-0.5-0.5c-0.3,0-0.5,0.2-0.5,0.5v17.3C91.5,80.8,91.8,81,92,81
	z"/>
<path class="st1" d="M93.8,81c0.3,0,0.5-0.2,0.5-0.5V62.3c0-0.3-0.2-0.5-0.5-0.5s-0.5,0.2-0.5,0.5v18.2C93.3,80.8,93.6,81,93.8,81z"
	/>
<path class="st1" d="M95.6,81c0.3,0,0.5-0.2,0.5-0.5V61.1c0-0.3-0.2-0.5-0.5-0.5c-0.3,0-0.5,0.2-0.5,0.5v19.4
	C95.1,80.8,95.3,81,95.6,81z"/>
<path class="st1" d="M97.4,81c0.3,0,0.5-0.2,0.5-0.5V60.3c0-0.3-0.2-0.5-0.5-0.5c-0.3,0-0.5,0.2-0.5,0.5v20.2
	C96.9,80.8,97.1,81,97.4,81z"/>
<path class="st1" d="M104,81c0.3,0,0.5-0.2,0.5-0.5V56.9c0-0.3-0.2-0.5-0.5-0.5c-0.3,0-0.5,0.2-0.5,0.5v23.6
	C103.5,80.8,103.8,81,104,81z"/>
<path class="st1" d="M105.9,81c0.3,0,0.5-0.2,0.5-0.5V56.4c0-0.3-0.2-0.5-0.5-0.5c-0.3,0-0.5,0.2-0.5,0.5v24.1
	C105.4,80.8,105.6,81,105.9,81z"/>
<path class="st1" d="M107.7,81c0.3,0,0.5-0.2,0.5-0.5V55.9c0-0.3-0.2-0.5-0.5-0.5s-0.5,0.2-0.5,0.5v24.6
	C107.2,80.8,107.4,81,107.7,81z"/>
<path class="st1" d="M109.6,72.3c0.3,0,0.5-0.2,0.5-0.5V55.4c0-0.3-0.2-0.5-0.5-0.5c-0.3,0-0.5,0.2-0.5,0.5v16.4
	C109.1,72.1,109.3,72.3,109.6,72.3z"/>
<path class="st1" d="M111.4,70.8c0.3,0,0.5-0.2,0.5-0.5V55.2c0-0.3-0.2-0.5-0.5-0.5s-0.5,0.2-0.5,0.5v15.2
	C110.9,70.6,111.1,70.8,111.4,70.8z"/>
<path class="st1" d="M117.8,66.8c0.3,0,0.5-0.2,0.5-0.5V54.1c0-0.3-0.2-0.5-0.5-0.5c-0.3,0-0.5,0.2-0.5,0.5v12.2
	C117.3,66.6,117.6,66.8,117.8,66.8z"/>
<path class="st1" d="M119.7,66.3c0.3,0,0.5-0.2,0.5-0.5v-12c0-0.3-0.2-0.5-0.5-0.5c-0.3,0-0.5,0.2-0.5,0.5v12
	C119.2,66,119.4,66.3,119.7,66.3z"/>
<path class="st1" d="M121.5,65.4c0.3,0,0.5-0.2,0.5-0.5V53.3c0-0.3-0.2-0.5-0.5-0.5c-0.3,0-0.5,0.2-0.5,0.5v11.7
	C121,65.2,121.3,65.4,121.5,65.4z"/>
<path class="st1" d="M123.4,64.6c0.3,0,0.5-0.2,0.5-0.5V53c0-0.3-0.2-0.5-0.5-0.5s-0.5,0.2-0.5,0.5v11.1
	C122.9,64.4,123.1,64.6,123.4,64.6z"/>
<path class="st1" d="M125.2,63.8c0.3,0,0.5-0.2,0.5-0.5V52.7c0-0.3-0.2-0.5-0.5-0.5c-0.3,0-0.5,0.2-0.5,0.5v10.6
	C124.7,63.6,124.9,63.8,125.2,63.8z"/>
<path class="st1" d="M131.6,61.5c0.3,0,0.5-0.2,0.5-0.5v-9.1c0-0.3-0.2-0.5-0.5-0.5c-0.3,0-0.5,0.2-0.5,0.5V61
	C131.1,61.3,131.4,61.5,131.6,61.5z"/>
<path class="st1" d="M133.6,61.2c0.3,0,0.5-0.2,0.5-0.5v-9.1c0-0.3-0.2-0.5-0.5-0.5s-0.5,0.2-0.5,0.5v9.1
	C133.1,61,133.3,61.2,133.6,61.2z"/>
<path class="st1" d="M135.5,60.7c0.3,0,0.5-0.2,0.5-0.5v-8.8c0-0.3-0.2-0.5-0.5-0.5c-0.3,0-0.5,0.2-0.5,0.5v8.8
	C135,60.5,135.2,60.7,135.5,60.7z"/>
<path class="st1" d="M137.4,60.1c0.3,0,0.5-0.2,0.5-0.5v-8.6c0-0.3-0.2-0.5-0.5-0.5c-0.3,0-0.5,0.2-0.5,0.5v8.6
	C136.9,59.9,137.1,60.1,137.4,60.1z"/>
<path class="st1" d="M139.3,59.6c0.3,0,0.5-0.2,0.5-0.5v-8.6c0-0.3-0.2-0.5-0.5-0.5c-0.3,0-0.5,0.2-0.5,0.5v8.6
	C138.9,59.3,139.1,59.6,139.3,59.6z"/>
<path class="st1" d="M145.5,58.2c0.3,0,0.5-0.2,0.5-0.5v-7.2c0-0.3-0.2-0.5-0.5-0.5c-0.3,0-0.5,0.2-0.5,0.5v7.2
	C145,58,145.3,58.2,145.5,58.2z"/>
<path class="st1" d="M147.3,57.6c0.3,0,0.5-0.2,0.5-0.5v-6.9c0-0.3-0.2-0.5-0.5-0.5c-0.3,0-0.5,0.2-0.5,0.5v6.9
	C146.8,57.4,147.1,57.6,147.3,57.6z"/>
<path class="st1" d="M149.1,57.1c0.3,0,0.5-0.2,0.5-0.5V50c0-0.3-0.2-0.5-0.5-0.5c-0.3,0-0.5,0.2-0.5,0.5v6.6
	C148.6,56.9,148.9,57.1,149.1,57.1z"/>
<path class="st1" d="M150.9,56.5c0.3,0,0.5-0.2,0.5-0.5v-6.4c0-0.3-0.2-0.5-0.5-0.5c-0.3,0-0.5,0.2-0.5,0.5v6.4
	C150.4,56.3,150.6,56.5,150.9,56.5z"/>
<path class="st1" d="M152.7,56.3c0.3,0,0.5-0.2,0.5-0.5v-6.4c0-0.3-0.2-0.5-0.5-0.5c-0.3,0-0.5,0.2-0.5,0.5v6.4
	C152.2,56,152.4,56.3,152.7,56.3z"/>
<path class="st1" d="M159.5,54.5c0.3,0,0.5-0.2,0.5-0.5v-5.1c0-0.3-0.2-0.5-0.5-0.5c-0.3,0-0.5,0.2-0.5,0.5V54
	C159,54.3,159.2,54.5,159.5,54.5z"/>
<path class="st1" d="M161.3,54c0.3,0,0.5-0.2,0.5-0.5v-4.9c0-0.3-0.2-0.5-0.5-0.5c-0.3,0-0.5,0.2-0.5,0.5v4.9
	C160.8,53.8,161,54,161.3,54z"/>
<path class="st1" d="M163.1,53.4c0.3,0,0.5-0.2,0.5-0.5v-4.6c0-0.3-0.2-0.5-0.5-0.5c-0.3,0-0.5,0.2-0.5,0.5v4.6
	C162.6,53.2,162.9,53.4,163.1,53.4z"/>
<path class="st1" d="M164.9,53c0.3,0,0.5-0.2,0.5-0.5V48c0-0.3-0.2-0.5-0.5-0.5c-0.3,0-0.5,0.2-0.5,0.5v4.5
	C164.4,52.8,164.7,53,164.9,53z"/>
<path class="st1" d="M166.7,52.2c0.3,0,0.5-0.2,0.5-0.5v-3.9c0-0.3-0.2-0.5-0.5-0.5c-0.3,0-0.5,0.2-0.5,0.5v3.9
	C166.3,51.9,166.5,52.2,166.7,52.2z"/>
<path class="st0" d="M178.8,76c0.7,0.7,1,1.5,1,2.5c0,1-0.3,1.8-1,2.5c-0.7,0.7-1.5,1-2.5,1s-1.8-0.3-2.5-1c-0.7-0.7-1-1.5-1-2.5
	c0-0.9,0.3-1.8,1-2.5c0.7-0.7,1.5-1.1,2.5-1.1C177.3,74.9,178.1,75.3,178.8,76z M179.4,75.4c-0.8-0.8-1.8-1.3-3-1.3
	c-1.1,0-2.1,0.4-2.9,1.2c-0.9,0.8-1.3,1.9-1.3,3.1c0,1.2,0.4,2.2,1.2,3c0.8,0.8,1.8,1.2,3,1.2c1.2,0,2.1-0.4,3-1.2
	c0.9-0.8,1.3-1.8,1.3-3.1C180.6,77.3,180.2,76.3,179.4,75.4z M176.9,78.1c-0.2,0.1-0.4,0.2-0.7,0.2h-0.5v-1.4h0.3
	c0.3,0,0.6,0,0.7,0.1c0.3,0.1,0.4,0.3,0.4,0.5C177.1,77.8,177,78,176.9,78.1z M175.7,79.1h0.3l0.3,0c0.2,0,0.3,0,0.4,0.1
	c0.2,0.1,0.3,0.2,0.4,0.3c0,0.1,0.1,0.3,0.1,0.6c0,0.3,0,0.5,0.1,0.7h1.2l0-0.1l0-0.1l0-0.1V80c0-0.5-0.1-0.8-0.4-1.1
	c-0.1-0.1-0.4-0.2-0.7-0.3c0.3,0,0.6-0.1,0.8-0.3s0.3-0.5,0.3-0.9c0-0.5-0.2-0.9-0.6-1.1c-0.3-0.1-0.6-0.2-0.9-0.2c-0.1,0-0.4,0-1,0
	s-1,0-1.3,0v4.7h1.2L175.7,79.1L175.7,79.1z"/>
</svg>
